<svg width="32" height="32" viewBox="0 0 64 64" fill="currentColor" xmlns="http://www.w3.org/2000/svg">
    <g fill-rule="evenodd">
        <path fill="#525edc" d="M48 64H16A16 16 0 0 1 0 48V16A16 16 0 0 1 16 0h32a16 16 0 0 1 16 16v32a16 16 0 0 1-16 16"/>
        <path fill="#5865F2" d="M30 18h18A9 9 0 0 0 48.92.046C48.614.029 48.311 0 48 0H16A16 16 0 0 0 0 16v32a30 30 0 0 1 30-30"/>
        <path fill="#4551c5" d="M48 32a16 16 0 1 0 16 16V16a16 16 0 0 1-16 16"/>
        <path fill="#ffffff" d="m47.62,17.22a37.26,37.26 0 0 0 -9.29,-2.86a25.53,25.53 0 0 0 -1.19,2.42a34.61,34.61 0 0 0 -10.31,0a25.64,25.64 0 0 0 -1.19,-2.42a37.52,37.52 0 0 0 -9.3,2.87c-5.88,8.7 -7.48,17.19 -6.68,25.55l0,0a37.46,37.46 0 0 0 11.4,5.72a27.53,27.53 0 0 0 2.44,-3.94a24.24,24.24 0 0 1 -3.84,-1.84c0.32,-0.23 0.64,-0.47 0.94,-0.71a26.78,26.78 0 0 0 22.79,0c0.31,0.25 0.62,0.49 0.94,0.71a24.34,24.34 0 0 1 -3.85,1.84a27.28,27.28 0 0 0 2.44,3.93a37.29,37.29 0 0 0 11.41,-5.72l0,0c0.94,-9.7 -1.6,-18.11 -6.7,-25.56zm-23.12,20.42c-2.22,0 -4.06,-2.02 -4.06,-4.5s1.77,-4.51 4.05,-4.51s4.1,2.03 4.06,4.51s-1.79,4.5 -4.05,4.5zm14.97,0c-2.23,0 -4.05,-2.02 -4.05,-4.5s1.77,-4.51 4.05,-4.51s4.09,2.03 4.05,4.51s-1.79,4.5 -4.05,4.5z" id="svg_1"/>
    </g>
</svg>
