<svg width="32" height="32" viewBox="0 0 64 64" fill="currentColor" xmlns="http://www.w3.org/2000/svg">
    <g fill-rule="evenodd">
        <path fill="#516372" d="M48 64H16A16 16 0 0 1 0 48V16A16 16 0 0 1 16 0h32a16 16 0 0 1 16 16v32a16 16 0 0 1-16 16"/>
        <path fill="#617789" d="M30 18h18A9 9 0 0 0 48.92.046C48.614.029 48.311 0 48 0H16A16 16 0 0 0 0 16v32a30 30 0 0 1 30-30"/>
        <path fill="#404f5b" d="M48 32a16 16 0 1 0 16 16V16a16 16 0 0 1-16 16"/>
        <path fill="#ffffff" d="m17.2,29.1l0.27,0.42c-0.54,-0.02 -1.12,-0.06 -1.21,-0.3c0,-0.02 0,-0.02 0,-0.03c0.3,-0.08 0.56,-0.1 0.94,-0.08zm2.89,1.23l0.13,0.4l-0.3,0.02l0.06,-0.4a1.09,1.09 0 0 0 0.11,-0.02zm1.04,2.92c-0.27,0.26 -0.48,0.42 -0.64,0.8c-0.22,-0.19 -0.35,-0.56 -0.42,-0.96c-0.08,-0.45 -0.11,-0.94 -0.16,-1.31l0.02,-0.19l0.3,-0.02l0.81,1.52l0.08,0.16zm-0.4,-3.74a96.73,96.73 0 0 1 0.11,-0.81l0.11,-0.02c-0.08,0.27 -0.16,0.56 -0.22,0.83zm-0.22,-3.71l1.44,0.38a3.16,3.16 0 0 0 0,0.06c-0.67,0.5 -1.29,0.72 -1.63,1.61l0.13,-2l0.06,-0.06zm1.34,-2.06c-0.1,0.93 0.03,1.33 0.19,1.9c0.26,0.19 0.37,0.29 0.29,0.56c-0.43,-0.21 -0.89,-0.43 -1.55,-0.4a4.47,4.47 0 0 1 -0.05,-0.05c0.18,-0.74 0.54,-1.18 0.81,-1.76l0.3,-0.27l0,0.02zm2.06,-1.25l0.06,0c-0.19,0.69 -0.27,2.27 -0.62,2.89c-0.81,-0.4 -0.8,-2.08 0.11,-2.73l0.45,-0.16zm-0.75,5.07l0.69,0.75c-0.27,0.83 -0.78,1.47 -1.01,2.43l-0.4,-0.03c-0.35,-0.97 0.51,-2.56 0.67,-3.26l0.64,0.06c0.08,0.21 0.14,0.4 0.22,0.61l-0.81,-0.56zm1.89,-5.07c-0.08,0.81 0.1,1.23 0.14,1.85c-0.4,0.21 -0.8,0.42 -1.21,0.62a8.41,8.41 0 0 1 0.59,-2.44l0.48,-0.03zm0.46,-1.23l0.1,0l-0.14,0.38l-0.26,0.02l0.21,-0.24l0.1,-0.16zm0.1,3.77l-1.21,0.75c0.02,-0.45 0.59,-1.05 1.09,-1.23l0.11,0.06l0.02,0.42zm0.81,-2.83c-0.08,0.42 -0.14,0.83 -0.22,1.25l-0.22,0.14l-0.13,0.14c-0.21,-0.32 -0.27,-1.07 -0.22,-1.66l0.8,0.13zm0.81,-0.94c0,0.02 0,0.03 0,0.03l-0.32,0.3c-0.21,0.08 -0.24,0.08 -0.5,0.06c0.03,-0.13 0.08,-0.27 0.11,-0.4l0.7,0zm0.81,-1.65l-0.37,0.81l-1.26,-0.1l0,-0.06c0.53,-0.24 0.97,-0.53 1.63,-0.67l0,0.02zm-0.66,2.14l0.13,-0.08l0.11,0.4l-0.4,-0.08l0.16,-0.26l0,0.02zm1.05,1.21c-0.48,0.19 -1.15,0.13 -1.53,0.35a124.5,124.5 0 0 0 -0.1,-0.5l0.26,-0.34c0.42,0.16 0.83,0.32 1.23,0.48l0.14,0zm-1.04,0.74l-0.54,0.03c-0.02,-0.06 -0.03,-0.13 -0.05,-0.18c0.4,-0.16 1.05,-0.18 1.63,-0.24l-0.62,0.34l-0.42,0.05zm1.45,0c-0.48,0.13 -0.91,0.53 -1.23,0.85c-0.05,-0.37 0.67,-1.02 1.01,-1.23c0.16,0.13 0.18,0.11 0.22,0.38zm0.81,-4.92l-0.02,0.06l-0.48,0.29l-0.74,0.06l0.02,-0.06l1.21,-0.35zm-0.67,1.23l-0.14,-0.22c0.37,-0.3 1.17,-0.14 1.61,-0.1l-1.47,0.32zm3.64,-1.21c0.69,0.06 1.31,0.22 1.77,0.51l0.13,0l-0.08,0.1l-0.64,0.19c-0.4,-0.05 -0.78,-0.11 -1.18,-0.16l-2.57,-0.37l0,-0.05a8.6,8.6 0 0 1 2.57,-0.22zm2.7,-0.21l-0.14,0.19a1.97,1.97 0 0 1 -1.07,-0.42l1.23,0.16l-0.02,0.06zm2.17,1.52l0.34,-0.13l0.35,0.3c-0.05,0.34 -0.38,0.62 -0.64,0.96l-0.19,0.02c-0.53,-0.88 -1.2,-1.84 -2.37,-2.19l-0.06,-0.1l0.48,-0.19c0.8,0.27 1.47,0.7 2.21,0.94c0.1,0.22 0.06,0.16 -0.11,0.38zm0.97,1.95l-0.08,-0.08l-0.21,0.02l0.34,-0.32l-0.03,0.38l-0.02,0zm0.37,4.55c0.54,0.48 0.69,1.17 0.46,2.06c-0.24,-0.53 -0.48,-1.05 -0.72,-1.58c0.08,-0.13 0.16,-0.24 0.24,-0.37c0,-0.03 0.02,-0.08 0.02,-0.11zm0.16,-3.71l0,0.08l-0.29,0.34l-0.13,-0.22c0.18,-0.3 0.05,-0.14 0.29,-0.18l0.13,-0.02zm0.34,0l1.29,0.48a1.65,1.65 0 0 1 -0.02,0.13c-0.11,0.08 -0.22,0.14 -0.32,0.22l-1.29,-0.48l0.02,-0.13l0.32,-0.22zm2.51,1.65l-0.72,-0.46l-0.1,-0.19c0.32,-0.19 0.27,-0.19 0.59,-0.13c0.08,0.27 0.16,0.53 0.22,0.78zm0.42,-0.16l-0.14,0.16c-0.18,-0.08 -0.21,-0.19 -0.27,-0.42l0.37,0.16l0.05,0.1zm-0.3,-1.17l-0.11,0c0.11,-0.11 0.22,-0.21 0.34,-0.32c-0.08,0.11 -0.16,0.21 -0.22,0.32zm1.92,2.06l-0.19,0.1a367.76,367.76 0 0 1 -1.09,-0.62a157.79,157.79 0 0 1 -0.34,-0.46c0.56,-0.4 0.58,0.08 1.1,0.34l0.51,0.66zm0.42,0.37l-0.42,-0.14l0.26,-0.13l0.16,0.27zm-0.5,0.67c0.14,0.29 0.14,0.21 0.5,0.16l-0.62,0.54l-0.61,-1.13l0.02,-0.08c0.43,-0.08 0.58,0.06 1.01,0.13l0.18,0.27l-0.46,0.11zm0.1,0.74l0.8,-0.45c-0.16,0.37 -0.37,0.56 -0.62,0.83l-0.18,-0.38zm1.61,1.57c-0.22,0.19 -0.37,0.26 -0.78,0.29l0.34,0.05l0,0.05l-1.15,0.5l-0.02,-1.47l0.78,-0.94l0.14,-0.06l0.69,1.6zm-0.4,-2.25c2.24,-0.62 1.81,0.58 0.81,1.49c-0.27,-0.5 -0.54,-0.99 -0.81,-1.49zm2.03,0.24c-0.83,3.9 -0.99,4.11 -3.92,5.77a5.27,5.27 0 0 0 -0.14,-0.22l0.1,-0.43c1.92,-0.54 2.99,-1.55 2.88,-3.82l0.96,-1.21l0.13,-0.08zm0.1,0c-0.03,-0.13 -0.06,-0.27 -0.1,-0.4l0.3,-0.02l-0.21,0.42zm-4.97,3.79l0.02,-0.43l0.03,-0.37l0.29,-0.1c0,0 0.02,0 0.03,0c0.08,0.48 0,0.85 -0.16,1.23c-0.14,-0.08 -0.16,-0.13 -0.21,-0.34zm-1.63,3.61l0,-0.08l0.54,-1.28l0.11,-0.27l0.93,0.06c0.02,0.08 0.03,0.14 0.03,0.21c0.05,0.5 -0.13,0.88 -0.29,1.39l-1.33,-0.03zm0.4,1.65l0.02,-0.64l0.02,-0.16l0.69,0.05l0.1,0c-0.16,0.26 -0.3,0.53 -0.46,0.78l-0.35,-0.03zm-0.4,-2.67l0.05,-0.02l0.32,-0.18l0.03,0l-0.05,0.18l-0.19,0.66l-0.16,-0.59l0,-0.05zm-0.64,2.06l-0.18,-0.19c0.18,0.13 0.06,0 0.18,0.19zm-0.99,-0.5c0.22,-0.14 0.48,-0.1 0.81,-0.1l-0.1,0.34c-0.29,0.11 -0.32,0.06 -0.64,0.03l-0.08,-0.27zm0.5,1.55l0.32,0.74c-0.24,0.18 -0.5,0.34 -0.74,0.5c-0.21,-0.3 0.02,-1.13 0.42,-1.23zm-0.8,-2.59l-0.11,0l0.14,-0.3l-0.03,0.3zm1.17,0.11l-0.05,-0.03l0.18,-0.38l0.06,0l0.16,0.4l-0.35,0.02zm2.81,-5.37l-0.02,-0.13c0.11,-0.14 0.18,-0.22 0.37,-0.27l0.05,0.24c-0.08,0.05 -0.16,0.1 -0.24,0.16l-0.14,0l-0.02,0zm-0.02,1.01c-0.08,0.1 -0.21,0.16 -0.3,0.24l-0.1,-2.06l0.4,1.82zm-0.75,2.76c0.27,-0.14 0.32,0 0.35,0.35l-0.81,0l0.02,-0.13l0.45,-0.22zm-0.4,-1.13l0.19,-0.16l0.14,0.27l-0.06,0.14l-0.34,-0.03l0.06,-0.22zm-0.06,1.09l-0.43,0.4l-0.27,-0.03l-0.11,0c0.06,-0.13 0.13,-0.26 0.19,-0.37l0.62,0zm-1.53,-0.22c-0.18,-0.13 -0.05,-0.11 -0.08,-0.19l0.08,0.19zm1.28,-1.84l-1.37,-0.72c0.06,-0.94 0.18,-2.03 0.08,-3c1.07,0.38 2.01,2.11 1.29,3.72zm-0.97,0c0.34,0.18 0.32,0.34 0.8,0.48c0.08,0.3 -0.05,0.43 -0.24,0.75l-0.5,-0.02c-0.11,-0.54 0,-0.86 -0.06,-1.21zm0.1,2.65c-0.18,-0.11 -0.05,-0.1 -0.08,-0.19l0.08,0.19zm2.75,-3.96l0.02,-0.08l0.37,-0.27c0.06,0.43 0.03,1.13 -0.06,1.66c-0.21,-0.18 -0.26,-0.89 -0.32,-1.31zm0,1.31c0.1,-0.14 0.18,-0.29 0.26,-0.42l-0.14,0.4l-0.11,0.02zm2.38,-1.25l0.06,0c0.02,1.58 -0.96,1.87 -2.24,2.46l-0.21,0.02l0.8,-1.66l1.58,-0.81zm-2.41,-3.08c0.02,0.05 0.03,0.08 0.03,0.13l-0.1,0.08l-0.3,-0.42l0.37,0.21zm-0.37,0.69l0.02,-0.06a5.35,5.35 0 0 1 0.08,-0.02l0.3,0.42c-0.22,-0.11 -0.27,-0.14 -0.4,-0.34zm0.4,1.05l-0.54,0.53l-1.18,-1.71l-1.52,-1.33l0.34,-0.27c0.74,0.32 2.03,0.93 2.29,1.69c0.1,0.24 -0.21,0.45 0,0.66c0.24,0.24 0.46,0.06 0.62,0.43zm-3.42,2.59l0.11,0.05l0.06,1.18l-0.19,-0.05c-0.18,-0.13 -0.3,-0.74 -0.14,-1.01l0.16,-0.18zm-0.91,2.06l0.13,0l0.14,0.32l-0.21,0.08l-0.21,0c0.05,-0.13 0.1,-0.27 0.14,-0.4zm-0.37,6.6l-0.18,-0.61c0.26,-0.08 0.5,-0.14 0.75,-0.22l0.06,0a0.85,0.85 0 0 0 -0.02,0.05l-0.62,0.77l0,0.02zm-0.59,-1.66c0.08,-0.24 0.13,-0.27 0.27,-0.42l0.11,0.05l0.03,0.11l-0.26,0.24l-0.16,0.02zm0.19,0.42l-0.19,-0.21l0.42,-0.21l-0.11,0.42l-0.11,0zm-0.42,1.87c-0.06,-0.05 -0.11,-0.1 -0.18,-0.14l0.13,0l0.62,-0.48l0.06,0.5l-0.48,0.32l-0.16,-0.19zm0.03,4.73c-0.99,0.03 -1.57,-0.21 -2.37,-0.29l-0.93,-1.81l-0.18,-0.18c1.55,-0.19 2.51,-0.93 3.64,-1.44c0.42,0.38 1.33,2.33 0.51,3.2c-0.19,0.3 -0.4,0.32 -0.69,0.51zm-4.22,-2.05l0.37,-0.02c0.56,0.37 0.94,1.04 1.2,1.65l-1.63,-0.46c0.13,-0.42 0.18,-0.83 0.06,-1.17zm-1.17,-1.55l1.84,-0.53l2.89,0.29l0.05,0.14c-0.86,0.38 -1.84,0.7 -2.83,1.2c-1.05,0.1 -1.31,-0.3 -2.06,-0.58l0.11,-0.53zm-0.11,1.95l0.03,-0.37l0.7,-0.05c0.06,0.3 0.13,0.48 0.03,0.83l-0.77,-0.42zm-0.81,0.64l0.27,-0.14c0.34,-0.22 0.59,0.06 0.96,0.19l-0.14,0.13l-1.09,-0.18zm0.8,-0.64a25.5,25.5 0 0 1 -0.27,-0.13l-0.11,-0.29l0.4,0.03l-0.02,0.38zm-1.2,0l0.4,0.35c0,0.21 -0.02,0.19 -0.06,0.46l-0.34,-0.81zm-1.05,-1.55c0.38,-0.11 0.88,-0.1 1.45,-0.1l-0.53,0.4l-1.1,-0.1l0.18,-0.21zm-0.97,-20.66c0.75,-0.72 2.65,-0.51 3.12,-0.05l0.13,-0.02c-0.62,0.59 -1.61,0.66 -2.21,1.25c-0.48,-0.32 -0.86,-0.53 -1.04,-1.18zm4.15,1.18l0.32,0.35c-0.29,0.02 -0.59,0.03 -0.89,0.06c-0.67,0.06 -1.33,0.16 -1.79,0.4l-0.06,0a81.75,81.75 0 0 1 -0.11,-0.16a5.82,5.82 0 0 1 2.48,-0.66l0.06,0zm1.58,-2.06c0.53,0.53 1.31,0.83 1.58,1.65c-1.1,-0.51 -2.8,-0.51 -3.66,-1.33c0.75,0.16 1.41,0.1 2.08,-0.32zm0.35,2.88l1.52,0.21l0.11,0l-1.2,1.04c-0.19,-0.38 -0.24,-0.91 -0.42,-1.25l-0.02,0zm1.95,1.77l-0.32,-0.05l0.42,-0.08l-0.1,0.13zm-0.32,-0.99l0.38,-0.37l0.03,0.42l-0.27,-0.06l-0.14,0.02zm0.74,13.65l-0.18,0.02l-0.14,-0.14l0.11,-0.16l0.29,-0.11l-0.08,0.4zm-0.32,0.75c0.05,-0.05 0.1,-0.11 0.16,-0.18l0,-0.16l0.24,0.38l-0.4,0.03l0,-0.08zm-0.16,1.33l-0.26,-0.3l0.81,-0.11l-0.38,0.4l-0.18,0.02zm0.16,1.23l-0.81,-0.1l0.58,-0.32l0.24,0.42zm-0.58,-1.17l0.16,0.16l-0.59,0.14l-0.62,0.03l0.88,-0.4l0.18,0.06zm-2.27,-17.8c0.46,0.02 0.97,0.13 1.21,0.42c-0.34,-0.03 -0.91,0.02 -1.07,-0.24l-0.14,-0.18zm0.4,1.65c0.24,0.21 0.32,0.45 0.27,0.83c-0.35,-0.13 -0.26,-0.53 -0.27,-0.83zm0.4,2.6l0.02,-0.08c0.81,-0.18 0.99,0.11 0.62,0.37c-0.32,-0.05 -0.46,-0.16 -0.62,-0.29l-0.02,0zm1.05,10.59l0.18,0.05a2.38,2.38 0 0 0 -0.02,0.05l-0.4,0.32l0.18,-0.42l0.06,0zm-0.22,-10.05l0.3,-0.26l0.1,0.42l-0.42,-0.1l0.02,-0.06zm1.21,11.03l-0.99,0.26l-0.24,0c0,0 0.02,-0.02 0.02,-0.03c0.37,-0.08 0.61,-0.19 0.81,-0.38l0.35,0.06l0.05,0.08l0,0.02zm-0.7,-0.97l-0.11,-0.22l0.27,-0.19l0.13,0.06l-0.16,0.34l-0.13,0.02zm-2.56,2.84l0.48,-0.37l1.5,0.13l0.05,0.11l-1.01,0.58c-0.37,-0.05 -0.7,-0.22 -0.89,-0.45l-0.13,0zm-0.75,0.05l0.75,0.4l-1.21,-0.21c0.16,-0.06 0.3,-0.13 0.46,-0.19zm-0.06,0.83a11.38,11.38 0 0 0 0,0.1l-0.24,0.13l-0.16,0.03l0,-0.1c0.18,-0.24 0.14,-0.16 0.4,-0.16zm-1.92,-16.78a9.62,9.62 0 0 0 -0.11,-0.13c0.4,-0.21 1.04,-0.32 1.66,-0.37c0.53,-0.05 1.02,-0.05 1.39,-0.06l0.21,1.25c-0.54,-0.06 -1.04,-0.13 -1.6,-0.16a8.31,8.31 0 0 0 -1.41,0.05a65.6,65.6 0 0 0 -0.14,-0.58zm0.61,16.56l0.1,0.16l-0.1,0.38l-1.12,0.08c0.11,-0.37 0.29,-0.54 0.48,-0.83l0.64,0.21zm-1.39,-1.44c-0.51,-0.03 -1.21,-0.4 -1.36,-0.83l1.63,0.42l-0.27,0.42zm0.58,-0.02l-0.3,0.02l0,-0.1l0.34,-0.32c-0.02,0.13 -0.03,0.26 -0.03,0.4zm-1.12,-15.09l0.5,-0.16l0.32,0.4l-0.34,0.02l-0.48,-0.26zm-0.02,17.71c-0.02,0.1 -0.05,0.18 -0.08,0.27a1.41,1.41 0 0 0 -0.11,0.02a148.05,148.05 0 0 0 -0.21,-0.42l0.42,0.03l-0.02,0.1zm0.22,-1.77l0.96,0.19l0.05,0.13l-0.74,0.91l-0.89,-0.13l0.62,-1.1zm7.11,-12.93l0.18,-0.27l0.06,0l0.51,0.13l0.06,0.06l-0.58,0.22a66.35,66.35 0 0 0 -0.24,-0.14zm1.1,-1.34l-0.29,-0.18c0.29,0.11 0.11,0 0.29,0.18zm-0.1,1.89l-0.19,-0.16l0.4,-0.24l-0.21,0.4zm-0.19,2.89l0.62,0.16c0.18,0.06 0.18,0.08 0.19,0.26c-0.27,-0.11 -0.74,-0.18 -0.81,-0.42zm0.06,-1.12l0.08,-0.11l0.26,0.4l-0.4,-0.08l0.06,-0.21zm-8.25,13.57l0.05,0.11l-0.56,0.21l-0.26,0.02l0,-0.05l0.19,-0.3c0.26,-0.11 0.26,-0.03 0.58,0.02zm-1.18,-20.69c0.35,0.26 0.45,0.59 0.4,1.65c-0.24,-0.3 -0.38,-0.93 -0.4,-1.65zm0.24,-0.83l-0.03,0.3l-0.21,0.02l0.24,-0.32zm-0.24,0.42c0,0.1 -0.02,0.21 -0.03,0.3l-0.37,-0.08l0.3,-0.21l0.1,-0.02zm0,23.92l0.21,-2.09l1.42,-0.38l-1.5,2.4l-0.13,0.08zm0.11,-5.64l0.21,-0.13c0.21,0.22 0.03,0.58 -0.16,0.81c-0.16,-0.14 -0.18,-0.24 -0.14,-0.58l0.08,-0.11l0.02,0zm-1.33,-0.21l0.46,-0.75l0.75,0.45c-0.26,0.4 -0.51,0.8 -0.77,1.2c-0.24,-0.21 -0.38,-0.51 -0.45,-0.89zm0,3.23l0.75,-0.69l0.35,0.03l0.11,0.19c-0.03,0.21 -0.06,0.42 -0.08,0.61l-1.13,-0.14zm-1.21,-0.56l0.89,-0.53l0.67,0.1l0.05,0.1l-0.72,0.62c-0.35,-0.03 -0.59,-0.13 -0.78,-0.29l-0.13,0l0.02,0zm-0.13,-0.8l0.34,-0.14l0.13,0.03l0.06,0.06l-0.94,0.32l-0.27,-0.1l0.69,-0.18zm-1.1,-0.38l0.24,-0.58c0.45,-0.06 0.56,0.16 0.88,0.3l0.1,0.14l-0.5,0.34l-0.4,0.03l-0.32,-0.24zm-0.81,1.69l0.59,-1.04c0.4,0 0.45,0.03 0.61,0.24c0.06,0.11 0.02,0.05 -0.14,0.08l-0.05,0.35l0.62,0.1c-0.13,0.3 -0.14,0.27 -0.32,0.46c-0.61,0.03 -0.88,-0.1 -1.31,-0.19zm-0.69,-1.45l1.04,0.3l0.06,0.13l-0.67,0.8l-0.96,-0.32l0.53,-0.91zm-3.98,-1.12l0.02,-0.13l0.58,0.45l0.05,0.13c-1.2,0.91 0.64,3.93 2.72,1.98l0.91,0.37c-0.35,0.61 -0.94,0.85 -1.57,1.2c-1.5,0.13 -3.6,-2.32 -2.7,-3.99zm1.39,0.42l0.03,0.29c-0.11,-0.08 -0.22,-0.16 -0.34,-0.26l-0.08,-0.16l0.38,0.13zm2.06,1.76l-0.75,0.58c-1.45,0.16 -2.05,-0.86 -2.09,-2.11l0.29,-0.34l0.11,-0.02c0.74,0.58 1.39,1.47 2.4,1.76l0.05,0.13zm-1.42,-6.01c-0.13,-0.1 -0.14,-0.14 -0.21,-0.3l0.29,-1.05l0.32,-0.29l0.21,0.3l-0.61,1.34zm-0.21,0.35l0.64,-1.52l0.13,-0.06c0.3,0.51 0.74,0.75 0.86,1.45l-0.97,1.01a1.95,1.95 0 0 1 -0.66,-0.88zm1.21,1.26l0.81,-0.78l0.42,0.81a153.2,153.2 0 0 0 -1.23,-0.03zm2.05,-8.33c-0.38,0.81 -0.91,1.37 -1.21,2.17c-0.13,-0.72 0.67,-1.76 0.94,-2.4l0.13,-0.08l0.14,0.3zm0,-2.27c0.61,-0.19 1.01,-0.53 1.44,-0.91l0.19,0.54l-0.53,0.69l-1.1,-0.32zm2.03,0.05l-0.22,0.27l-0.18,-0.03l0,-0.05l0.37,-0.34l0.03,0.14zm-0.32,-1.79l0.06,0l0.26,0.54l-0.1,0.29c-0.37,-0.19 -0.35,-0.43 -0.22,-0.83zm-0.08,11.95l0.38,0.27l-0.38,-0.16a1.65,1.65 0 0 1 0,-0.11zm0,0.42l0.4,0.18a1.44,1.44 0 0 0 0,0.05l-0.86,0.61c-0.26,-0.11 -0.29,-0.34 -0.35,-0.58l0,-0.05l0.81,-0.21zm-1.21,-0.81l0.4,0.14l-0.21,0.13l-0.21,0.02l0.02,-0.29zm-0.02,-8.25c0.5,0.13 0.34,0.03 0.35,0.4c-0.22,-0.13 -0.24,-0.19 -0.35,-0.4zm0,7.37l0.03,-0.37c0.19,0.14 0.26,0.21 0.38,0.42a97.49,97.49 0 0 0 -0.42,-0.05zm0.81,-5.16c-0.14,0.21 -0.14,0.14 -0.4,0.26l0.18,-0.42l0.22,0.16zm0,-1.66l-0.26,0.27c-0.26,-0.14 -0.13,-0.08 -0.02,-0.35l0.14,-0.06l0.13,0.14zm-0.03,-0.69l-0.37,-0.27c0.29,0.11 0.21,0.03 0.37,0.27zm-0.78,7.56l0.42,0.32c-0.21,0 -0.32,-0.05 -0.42,-0.32zm1.23,-0.02l-0.18,0.02l-0.14,-0.26l-0.1,-0.13l0.22,-0.03c0.06,0.14 0.13,0.27 0.19,0.4zm-0.22,-7.64l-0.19,-0.18c0.18,0.13 0.06,0 0.18,0.18l0.02,0zm0.02,6.79l-0.21,-0.43l0.1,-0.35l0.05,0l0.27,0.81a59.46,59.46 0 0 0 -0.21,-0.03zm-1.07,4.81l0.05,0.05l-0.14,0.54a1.12,1.12 0 0 1 -0.67,-0.83l0.77,0.24zm-1.17,0.59l0.4,0.37c-0.26,-0.13 -0.27,-0.11 -0.4,-0.37zm0.7,-3.66l0.05,0.37l-0.35,-0.42l0.3,0.05zm-0.4,1.93l-0.3,-0.75c0.35,0.14 0.62,0.54 0.81,0.83l-0.51,-0.08zm0.32,-7.35l0.1,0l-0.3,0.42c-0.05,-0.1 0.02,-0.19 0.18,-0.32l0.03,-0.1zm-0.22,3.55l-0.08,0.16l-0.22,-0.18a186.65,186.65 0 0 1 -0.1,-0.19l0.32,-0.03l0.08,0.24zm-2.84,3.47c0.81,0.53 2.21,1.02 2.44,2.06a6.76,6.76 0 0 1 -2.44,-2.06zm2.11,-0.4l0.34,0.4l-0.81,-0.42l0.48,0.02zm2.99,1.23l-0.62,-0.62l1.09,-1.04l0.13,1.13l-0.59,0.53zm0.59,0.69l0.11,-0.27l0.14,-0.02l0.16,0.42l-0.42,-0.13zm0.56,-1.52l-0.14,-0.42l0.29,0.06l-0.14,0.35zm-0.56,-13.89l0.02,-0.03c0.13,-0.03 0.26,-0.06 0.4,-0.1l-0.29,0.4l-0.13,-0.27zm-4.09,8.53l-0.38,-0.83c0.48,0.1 0.4,0.45 0.38,0.83zm-1.01,0.4c-0.34,-0.24 -0.56,-0.72 -0.59,-1.23c0.72,0.16 0.67,0.45 0.81,1.1l-0.22,0.13zm-0.42,-2.14c-0.51,-0.5 0.24,-2.46 0.58,-2.91c0.18,-0.22 0.38,-0.22 0.69,-0.3l0.19,0.05c-0.5,0.86 -0.81,2.05 -0.94,3.24l-0.51,-0.08zm-0.75,6.68l0.24,0.42l-0.22,0.53l-0.13,0.13c0.19,0.03 0.22,-0.13 0.5,-0.35c0.53,0.86 1.34,1.68 2.22,2.14l-0.48,0.85l-1.47,-0.94c-0.18,-0.3 0.06,-0.67 -0.21,-0.86c-0.24,-0.16 -0.56,0.08 -0.81,0l-0.69,-0.62c0.21,-0.46 0.4,-0.89 0.8,-1.13l0.26,-0.14zm-1.41,-4.54a10.63,10.63 0 0 1 0.22,-1.23l0.06,0l0.21,1.23l0.11,0.64c0.32,0.88 0.64,1.77 0.97,2.67c-0.78,-0.43 -1.26,-1.41 -1.18,-2.72c-0.19,0.43 -0.03,1.09 0.02,1.47c-0.46,-0.42 -0.53,-1.21 -0.43,-2.06l0.02,0zm-0.72,0.42a1.5,1.5 0 0 1 -0.13,-0.5a3.24,3.24 0 0 1 0,-0.69l0.08,-0.16l0.3,-0.3l-0.18,1.15l-0.08,0.5zm28.33,4.12l-0.81,-0.3l0.78,-0.11l0.03,0.42zm-21.52,6.71l0.21,-0.11l-0.26,0.42l0.03,-0.3l0.02,0zm-6.14,-14.13l-0.35,-0.03c-0.43,-0.14 -0.83,-0.66 -0.88,-1.21c0.67,0.06 0.89,0.38 1.21,0.77c0,0.16 0.02,0.32 0.02,0.48zm-0.05,-0.03c0.05,-0.89 -0.64,-1.45 -1.52,-1.42c0.14,-1.26 1.23,-1.9 2.21,-2.32l0.19,-0.02c-0.16,1.57 -0.05,2.92 -0.62,4.28c-0.43,1.01 -1.98,0.97 -1.89,2.52l0,0.13c0.22,2.05 2.46,2.46 2.76,4.27c-3.31,1.69 0.72,8.76 3.34,4.6c0.46,0.08 0.88,0.29 1.47,0.08c0.27,-0.14 0.32,-0.27 0.43,-0.59l0.93,0.5l0.05,0.11c-0.85,0.67 -1.45,1.58 -2.38,2.21l0.1,-0.26l-0.24,-0.05l-0.14,0.08l-0.11,0.56c0.53,0.53 2.13,-1.41 2.59,-1.79c-0.27,0.93 -0.93,1.39 -1.28,2.24l0.11,0.13c0.69,-0.5 1.52,-1.89 1.65,-2.96l1.04,0.18c-1.29,1.74 -4.6,5.58 -6.34,6.6c0.26,-0.83 0.69,-1.47 0.89,-2.16l-0.13,0.02a23.01,23.01 0 0 0 -0.11,-0.11c-0.42,0.83 -1.12,1.42 -1.25,2.54a1.1,1.1 0 0 0 0.29,0.29c2.06,-0.35 5.53,-5.55 7.17,-6.97c-0.45,4.49 -2.84,5.19 -4.94,7.91c1.9,-0.94 3.05,-3.37 4.67,-4.7c-0.18,1.87 -0.62,6.06 -1.74,6.81l0.19,-0.02c1.25,-0.78 1.33,-3.99 1.74,-5.64l0.19,-1.74l1.79,-2.52l0.13,-0.06c0.21,0.62 1.12,1.31 2.11,1.13l0.7,-0.3l1.77,0.67c0.24,2.56 0.14,3.98 -1.47,5.93c1.65,-0.85 2.25,-4.11 1.71,-5.83c3.84,0.45 3.69,-0.85 2.96,-3.64l0.67,0c-0.11,-0.18 -0.45,-0.05 -0.72,-0.19c-0.11,-0.06 -0.08,-0.05 -0.16,-0.16c0.91,-1.04 3.12,-0.02 2.65,1.69c0.64,-1.42 -0.77,-2.68 -2.11,-2.17c0.58,-0.67 1.26,-1.25 1.63,-2.14l0.13,-0.06l3.16,3.32l0.19,-0.02l0.14,-0.21c-1.01,-1.18 -2.01,-2.38 -3.02,-3.58l0.34,-0.14a0.66,0.66 0 0 1 0.56,-0.19a36.03,36.03 0 0 1 -0.16,-0.08c1.61,0.16 3.68,1.52 5.35,1.07c0.16,-0.27 0.18,-0.42 0.08,-0.67c1.79,0.05 5.02,-0.56 6.06,-1.44c-2.76,0.59 -5.88,0.78 -8.42,0.45l-2.25,-0.27l-0.13,0.02l0.61,-1.09c1.85,-0.03 6.73,-0.08 7.7,-1.25l-0.22,-0.29l-0.85,-0.13a0.62,0.62 0 0 0 -0.1,0.32l0.67,0.06c-1.45,0.37 -5.51,1.15 -6.84,0.7c-0.13,-0.18 -0.03,-0.77 -0.03,-1.18a1.55,1.55 0 0 0 0,-0.22c1.9,-0.58 3.32,-1.85 3.9,-3.79c0.34,-1.12 0.11,-2.57 0.83,-3.26c0.45,0.05 0.54,0.24 0.88,0.37c-0.18,-0.24 -0.43,-0.38 -0.75,-0.5l-0.59,0.42c-0.54,0.21 -1.12,-0.35 -2.05,0.08c-0.75,-0.64 -1.17,-1.65 -2.19,-2.05l-0.1,-0.18l1.23,-1.2c-0.42,0.35 -0.81,0.74 -1.23,1.13l-0.83,-0.37l-0.05,-0.11c0.94,-0.67 1.77,-0.91 2.84,-0.7c0.05,0.1 0.11,0.19 0.16,0.3c-0.05,0.08 -0.1,0.1 -0.14,0.13l-0.35,-0.1c0.16,0.1 0.32,0.11 0.48,0.14l0.13,-0.13l0.03,-0.19c-0.24,-0.21 -0.32,-0.35 -0.77,-0.37l0.21,-0.32c-0.51,0.35 -1.58,0.45 -2.11,0.77l1.21,-0.96l0.14,-0.19l-2.24,1.34c-0.46,-0.03 -0.97,-0.26 -1.23,-0.53a63.06,63.06 0 0 0 -0.13,0l2.65,-1.79l-0.05,-0.18c-1.01,0.59 -2.01,1.17 -3,1.76l-0.97,-0.24l0.1,-0.86l6.9,-5.42l0.11,0l-0.1,-0.24c-0.26,-0.13 -1.29,0.72 -1.69,0.97c-1.53,0.99 -2.88,2.21 -4.38,3.08c0.61,-0.78 1.74,-1.57 1.93,-2.72l-0.3,-0.03l-0.46,0.4l0.51,-0.22c-0.34,1.01 -1.84,2.81 -2.68,3.39l-0.11,-0.24c0.56,-0.93 1.1,-2.17 0.85,-3.37l-0.46,-0.27l-0.5,0.03c0.32,0.13 0.53,0.16 0.77,0.32c0.14,1.15 -0.42,1.93 -0.72,2.88l-0.14,0.06c-0.19,-0.38 -0.19,-0.56 -0.61,-0.62l-0.03,-0.26l0.29,-0.38l0.19,-0.14c0.06,0.13 0.08,0.1 0.1,0.3a0.62,0.62 0 0 0 0.1,-0.3l-0.24,-0.11l-0.62,0.66c-0.51,-0.34 -1.09,-0.7 -1.82,-0.85c0.42,-0.85 1.68,-2.24 1.02,-3.32c-0.78,-1.33 -3.5,0.21 -4.49,1.25a1.97,1.97 0 0 0 -0.29,0.4a14.41,14.41 0 0 1 0.29,-0.24c0.97,-0.72 3.58,-2.46 4.15,-1.07c0.59,0.78 -0.54,2.27 -0.86,2.88c-1.05,-0.1 -2.16,-0.21 -3.29,-0.18a11.86,11.86 0 0 0 -3.52,0.56c-0.58,0.19 -3.02,1.66 -3.12,1.65l-1.12,-1.09l-2.35,-1.17l0,0.11l-0.14,0.14l3,2.52l-0.46,0.29c-1.23,-0.94 -2.08,-1.5 -3.92,-1.98l-0.32,0.03c1.07,0.74 2.16,1.41 3.24,2.08l0.21,0.3c-0.77,0.32 -1.1,0.99 -1.74,1.41c-1.02,-0.48 -1.97,-0.93 -3.2,-1.29l-0.08,0.26l2.3,1.49l0.13,-0.02l-0.4,0.27c-0.18,0.62 -0.54,1.34 -0.85,2.22c-1.15,0.93 -2.64,0.88 -2.88,2.78c-0.37,0.1 -0.62,0.13 -0.96,0.38l-0.02,0.24c0.21,0.3 2.08,1.09 2.52,1.17l0.27,-0.27l0,0.02zm13.65,-13.2l0.16,0.03l-0.22,-0.03c-0.03,0 -0.08,0 -0.11,0c0.18,-0.34 0.7,-0.42 1.21,-0.37l-0.03,0.24l-1.01,0.05l0,0.08zm0.7,0.45l0.48,-0.16c0.21,-0.35 0.34,-0.72 0.22,-1.05c-0.5,-0.1 -0.78,0.03 -1.23,0.22a79.37,79.37 0 0 0 -0.26,0.42l-0.1,0.16a0.91,0.91 0 0 0 0.1,0.1c0.16,0.13 0.34,0.18 0.69,0.14c0.1,0.16 -0.02,0.08 -0.19,0.13l0.29,0.05zm11.84,3.71l-0.53,0.1l0.32,-0.02l0.37,0.14l-0.54,1.01c0.27,-0.34 0.56,-0.56 0.67,-1.07l-0.29,-0.16zm-2.96,16.08c-0.13,-0.22 -0.27,-0.37 -0.42,-0.4c0.13,0.11 0.27,0.24 0.42,0.4zm-1.63,4.95l-0.42,0.24l0.32,-0.03l0.1,-0.21zm1.63,-4.95c0.4,0.48 0.72,1.37 0.62,2.06c0.48,-1.01 -0.06,-1.65 -0.62,-2.06z" id="svg_2"/>
    </g>
</svg>
