<svg width="32" height="32" viewBox="0 0 64 64" fill="currentColor" xmlns="http://www.w3.org/2000/svg">
    <g fill-rule="evenodd">
        <path fill="#3d3d5c" d="M48 64H16A16 16 0 0 1 0 48V16A16 16 0 0 1 16 0h32a16 16 0 0 1 16 16v32a16 16 0 0 1-16 16"/>
        <path fill="#4b4b71" d="M30 18h18A9 9 0 0 0 48.92.046C48.614.029 48.311 0 48 0H16A16 16 0 0 0 0 16v32a30 30 0 0 1 30-30"/>
        <path fill="#2d2d44" d="M48 32a16 16 0 1 0 16 16V16a16 16 0 0 1-16 16"/>
        <path fill="#ffffff" d="m31.98,12.7l-15.63,1.6l0,28.01l15.63,9.09l15.63,-9.09l0,-28.01l-15.47,-1.57l-0.16,-0.02zm13.59,28.47l-13.59,7.91l-13.59,-7.91l0,-11.48l13.53,7.87l0.02,1.43l-9.28,-5.41l-0.01,1.39l9.32,5.48l0.02,1.45l-9.32,-5.41l-0.01,1.38l9.32,5.48l9.42,-5.5l0,-1.4l-0.01,0.01l0,-4.52l4.18,-2.44l0,11.67zm-0.01,-13.16l-5.43,3.13l-8.18,-4.76l-0.01,1.39l6.99,4.06l-0.06,0.04l-0.15,0.08l-1,0.57l-5.77,-3.35l-0.01,1.38l4.55,2.65l-1.08,0.71l-0.02,0.01l-3.44,-2l-0.01,1.39l2.25,1.31l-2.3,1.34l-13.46,-7.82l13.49,-7.91l13.65,7.78zm0.01,-1.39l-13.66,-7.87l-13.51,7.86l0,-10.51l13.59,-1.39l13.59,1.39l0,10.51l0,0.01z" id="svg_1"/>
    </g>
</svg>
